<svg version="1.1" id="Layer_1" xmlns:x="ns_extend;" xmlns:i="ns_ai;" xmlns:graph="ns_graphs;" xmlns="http://www.w3.org/2000/svg" xmlns:xlink="http://www.w3.org/1999/xlink" x="0px" y="0px" viewBox="0 0 194.6 47" style="enable-background:new 0 0 194.6 47;" xml:space="preserve">
 <style type="text/css">
  .st0{fill:#614DFF;}
	.st1{fill:#080E10;}
 </style>
 <metadata>
  <sfw xmlns="ns_sfw;">
   <slices>
   </slices>
   <sliceSourceBounds bottomLeftOrigin="true" height="47" width="194.6" x="324.2" y="295.3">
   </sliceSourceBounds>
  </sfw>
 </metadata>
 <g>
  <path class="st0" d="M18.8,0.1C19.4,0.1,20-0.1,20.6,0c0.7,0,1.5,0,2.2,0c3,0.2,6,1,8.6,2.4c2.7,1.4,5,3.3,6.8,5.7
		c0.3,0.4,0.6,0.8,0.8,1.1c-3.1,1.2-6.2,2.4-9.4,3.7c-0.8,0.3-1.5,0.6-2.3,1c-3.8,2.1-5.2,6.8-3.1,10.6c0.7,1.2,1.7,2.3,2.9,3
		c3.1,1.8,7,1.3,9.5-1.2c1-1,1.6-2.2,1.9-3.5c0.4-1.9,0.1-3.9-0.5-5.7c-0.3-0.8-0.6-1.7-0.9-2.5c0.2-0.1,0.4-0.2,0.6-0.3
		c1.1-0.4,2.2-0.9,3.4-1.3c1.2,2.8,1.8,5.8,1.7,8.9c-0.1,3.7-1.1,7.3-2.9,10.4C34,42.5,20.9,46,10.6,40c-2.2-1.3-4.1-2.9-5.8-4.9
		c-2.1-2.5-3.6-5.5-4.3-8.7c-0.3-1.1-0.4-2.2-0.5-3.3c0.1-1.1,0.1-2.2,0-3.3c0.2-2.4,0.8-4.7,1.7-6.9c1.3,0.5,2.6,1,3.9,1.5
		c-0.1,0.2-0.1,0.4-0.2,0.6c-0.7,1.5-1.1,3.2-1.3,4.8c-0.2,1.8,0.1,3.7,1.1,5.3c2,2.9,5.7,4.1,9,2.9c1.8-0.7,3.3-1.9,4.3-3.6
		c0.8-1.4,1.1-3.1,0.9-4.7c-0.3-2.6-1.8-4.8-4.1-6c-0.5-0.3-1-0.5-1.5-0.7c-3.3-1.3-6.7-2.6-10.1-3.9C4.6,8,5.6,6.8,6.6,5.8
		C9.9,2.7,14.2,0.7,18.8,0.1 M16.4,4.9c-2,0.6-3.9,1.6-5.5,2.9c1.8,0.7,3.6,1.4,5.3,2.1c2.1,0.9,3.9,2.4,5.2,4.3h0.1
		c1.4-2.1,3.4-3.7,5.8-4.6c1.6-0.6,3.2-1.2,4.7-1.9c-0.1-0.1-0.3-0.3-0.5-0.4C27.2,4.3,21.6,3.4,16.4,4.9 M20.2,28.7
		c0.4,0.4,0.8,0.8,1.2,1.1c0.4-0.3,0.8-0.8,1.2-1.1c-0.4-0.5-0.8-1-1.2-1.5C21,27.8,20.6,28.3,20.2,28.7 M11.5,32.5
		c-1.4,0-2.8-0.3-4.1-0.8c1.9,2.6,4.5,4.5,7.4,5.7c4.2,1.7,8.8,1.7,13,0.1c3-1.2,5.7-3.2,7.6-5.8c-1.3,0.5-2.7,0.8-4.1,0.8
		c-1.8,0-3.6-0.4-5.2-1.2c-1.5,1.5-3,3-4.5,4.5c-0.1,0.1-0.2,0.2-0.2,0.1c-1.5-1.5-3-3-4.5-4.5C15.2,32.1,13.4,32.5,11.5,32.5
		 M10.6,15.2c3.1-0.5,6.1,1.5,6.6,4.6c0.1,0.7,0.1,1.5-0.1,2.2c-0.7,3.1-3.7,5.1-6.8,4.4S5.4,22.7,6,19.6
		C6.5,17.3,8.4,15.5,10.6,15.2 M11.2,19.4c-0.8,0.2-1.2,1-1,1.8c0.2,0.8,1,1.2,1.8,1c0.7-0.2,1.1-0.8,1-1.5
		c-0.1-0.8-0.8-1.4-1.6-1.4C11.4,19.3,11.3,19.4,11.2,19.4 M30.2,15.2c3.1-0.5,6.1,1.5,6.6,4.7c0.5,3.1-1.5,6.1-4.7,6.6
		c-0.7,0.1-1.4,0.1-2.1,0c-3.1-0.6-5.1-3.6-4.5-6.7C26.1,17.3,27.9,15.5,30.2,15.2 M30.8,19.4c-0.8,0.2-1.2,1-1,1.8
		c0.2,0.8,1,1.2,1.8,1c0.7-0.2,1.1-0.9,1-1.6c-0.1-0.8-0.8-1.4-1.6-1.3C30.9,19.3,30.9,19.4,30.8,19.4z">
  </path>
  <path class="st1" d="M159.4,9.9c0-2.6,0-5.2,0-7.8c2.5,0,5,0,7.5,0c0,12.3,0,24.5,0,36.7c-2.5,0-5,0-7.5,0
		C159.4,29.2,159.4,19.6,159.4,9.9 M51,4.1h11.6c1.8,0,3.6,0.2,5.3,0.7c2.6,0.8,5,2.3,6.6,4.5c1.7,2.4,2.4,5.4,2.3,8.3
		c-0.1,2.8-1,5.5-2.8,7.8c-1.7,2.1-4.1,3.7-6.7,4.4c-1.7,0.5-3.4,0.7-5.2,0.7h-3.3v8.5h-7.8L51,4.1 M58.8,10.8c0,4.3,0,8.7,0,13
		c1.2,0,2.3,0,3.5,0c1.6-0.1,3.3-0.4,4.6-1.5c1.1-0.9,1.7-2.4,1.8-3.9c0.2-1.7,0-3.4-0.9-4.9c-0.7-1.1-1.8-2-3.1-2.3
		C62.8,10.7,60.7,10.9,58.8,10.8 M107.1,13.9c3-0.1,6.2,0.5,8.8,2.3c2.2,1.6,3.7,4.1,4.3,6.7c0.5,2.2,0.5,4.4,0.1,6.6
		c-0.5,2.7-1.8,5.2-3.9,7c-2.2,1.9-5.2,2.8-8.2,2.9s-6-0.5-8.4-2.1c-1.2-0.8-2.2-1.8-3-3c-1-1.6-1.6-3.4-1.9-5.2
		c-0.3-2.1-0.2-4.2,0.3-6.2c0.5-1.9,1.4-3.6,2.7-5.1c1.7-1.8,4-3.1,6.5-3.6C105.3,14,106.2,13.9,107.1,13.9 M106.9,20.1
		c-1.5,0.2-2.8,1.1-3.6,2.4c-0.9,1.6-1.1,3.5-0.9,5.2c0.2,1.6,0.7,3.3,2,4.4c1.4,1.2,3.4,1.5,5.1,0.9c1.2-0.4,2.2-1.3,2.7-2.4
		c0.8-1.5,0.9-3.3,0.8-4.9c-0.1-1.7-0.7-3.3-1.9-4.5C110,20.2,108.4,19.9,106.9,20.1 M88.6,15.4c1.6-1,3.4-1.4,5.3-1.4
		c0,2.7,0,5.3,0,7.9c-2.6,0-5.2,0.7-7.6,1.8c-0.1,2.3,0,4.7,0,7c0,2.7,0,5.4,0,8.1c-2.5,0-5,0-7.5,0c0-8.1,0-16.2,0-24.3
		c1.9-0.1,3.8,0,5.7,0c0.5,1,1,2.1,1.6,3.1C86.8,16.7,87.6,16,88.6,15.4 M119.7,14.5c2.6,0,5.2,0,7.7,0c0.1,0.1,0.1,0.3,0.1,0.4
		c1,3.9,2,7.8,3,11.7c0.2,0.7,0.3,1.3,0.5,2c1.4-3.5,2.9-7.1,4.3-10.6c0.5-1.1,0.9-2.3,1.4-3.5c1.4,0,2.7,0,4.1,0
		c2,4.7,4,9.5,6,14.3c1.2-4.8,2.5-9.5,3.7-14.3c2.4,0,4.8,0,7.2,0c-2.4,8.1-4.8,16.2-7.1,24.3c-2.1,0-4.2,0-6.3,0
		c-1.5-3.4-2.9-6.8-4.4-10.2c-0.5-1.2-1-2.4-1.6-3.6c-1.9,4.6-3.9,9.2-5.8,13.8c-2.1,0-4.2,0-6.2,0
		C124.3,30.8,121.9,22.7,119.7,14.5 M168.1,14.5c2.7,0,5.5,0,8.2,0c1.8,5.4,3.7,10.8,5.6,16.1c1.8-5.4,3.5-10.8,5.3-16.1
		c2.4,0,4.9,0,7.4,0l0,0c-0.2,0.4-0.4,0.9-0.6,1.4c-4.1,10.3-8.2,20.7-12.2,31h-7.4c1.1-2.9,2.3-5.8,3.5-8.7c0-0.1,0.1-0.2,0.1-0.4
		C174.6,30.1,171.3,22.3,168.1,14.5L168.1,14.5z">
  </path>
 </g>
</svg>